<?xml version="1.0" encoding="utf-8"?>
<!-- Generator: Adobe Illustrator 19.1.0, SVG Export Plug-In . SVG Version: 6.00 Build 0)  -->
<svg version="1.1" id="Layer_1" xmlns="http://www.w3.org/2000/svg" xmlns:xlink="http://www.w3.org/1999/xlink" x="0px" y="0px"
	 viewBox="0 0 118.6 110.1" style="enable-background:new 0 0 118.6 110.1;" xml:space="preserve">
<style type="text/css">
	.st0{fill:#010101;}
</style>
<g>
	<circle class="st0" cx="8" cy="52.6" r="8"/>
	<path class="st0" d="M118.3,44c-2.3-13.2-14.9-22-28.2-19.7c-1.7,0.3-3.3,0.8-4.8,1.4C81.3,8.6,64.6-2.6,47.2,0.5
		C29.1,3.7,17,21,20.2,39c1.1,6.3,4,11.9,8,16.4c-14.6,3-24.3,17.1-21.7,31.9c2.7,15,17,25,32,22.4c15-2.7,25-17,22.4-32
		c-0.7-4.2-2.4-8.1-4.8-11.3c0.9-0.1,1.8-0.2,2.6-0.4c5.3-0.9,10.2-3.1,14.2-6.2c4.8,9,15,14.2,25.6,12.4
		C111.8,69.8,120.6,57.2,118.3,44z"/>
</g>
</svg>
