<?xml version="1.0" encoding="utf-8"?>
<!-- Generator: Adobe Illustrator 19.1.0, SVG Export Plug-In . SVG Version: 6.00 Build 0)  -->
<svg version="1.1" id="Layer_1" xmlns="http://www.w3.org/2000/svg" xmlns:xlink="http://www.w3.org/1999/xlink" x="0px" y="0px"
	 viewBox="0 0 111.2 97.9" style="enable-background:new 0 0 111.2 97.9;" xml:space="preserve">
<style type="text/css">
	.st0{fill:#010101;}
</style>
<g>
	<path class="st0" d="M54.1,19.5c-10.5,2.9-18.9,9.8-23.9,18.6c0.5-2.3,0.5-4.8-0.2-7.2c-2.2-8.1-10.7-12.9-18.8-10.6
		C3.1,22.4-1.7,30.8,0.6,38.9c2.2,8.1,10.7,12.9,18.8,10.6c3.3-0.9,6-2.8,8-5.4c-2.8,7.6-3.3,16-1,24.4
		c5.9,21.2,27.9,33.7,49.1,27.8s33.7-27.9,27.8-49.1C97.3,26.1,75.4,13.6,54.1,19.5z"/>
	<circle class="st0" cx="104.4" cy="6.8" r="6.8"/>
</g>
</svg>
