<?xml version="1.0" encoding="utf-8"?>
<!-- Generator: Adobe Illustrator 19.1.0, SVG Export Plug-In . SVG Version: 6.00 Build 0)  -->
<svg version="1.1" id="Layer_1" xmlns="http://www.w3.org/2000/svg" xmlns:xlink="http://www.w3.org/1999/xlink" x="0px" y="0px"
	 viewBox="0 0 120.7 120.6" style="enable-background:new 0 0 120.7 120.6;" xml:space="preserve">
<style type="text/css">
	.st0{fill:#010101;}
</style>
<g>
	<path class="st0" d="M111.3,38.5c-6.4-2.7-13.6-0.6-17.7,4.6C95.5,34.9,94.4,26,90,18C80.6,1.1,59.2-5,42.2,4.5
		c-12.9,7.2-19.5,21.3-17.8,35c-0.2-0.8-0.6-1.5-1-2.2c-3.4-6-11-8.2-17-4.8c-6,3.4-8.2,11-4.8,17c2.5,4.5,7.3,6.8,12.2,6.4
		c-0.8,3.7-0.4,7.7,1.6,11.3c1,1.7,2.2,3.2,3.6,4.4c-10,8.4-13,23-6.4,34.8c7.5,13.4,24.4,18.2,37.8,10.7
		c13.4-7.5,18.2-24.4,10.7-37.8c-2.3-4.1-5.4-7.3-9-9.7c8,1.7,16.6,0.6,24.3-3.7c6.1-3.4,10.8-8.3,13.8-14
		C90,58,93.5,64.1,99.6,66.6c7.8,3.2,16.7-0.5,19.9-8.2C122.7,50.6,119,41.7,111.3,38.5z M25.3,43.9c-0.1,0-0.2,0-0.2,0.1
		c0-0.3,0-0.7,0-1C25.1,43.2,25.2,43.6,25.3,43.9z"/>
</g>
</svg>
